<?xml version="1.0" encoding="UTF-8"?>
<svg id="Layer_1" data-name="Layer 1" xmlns="http://www.w3.org/2000/svg" viewBox="0 0 12 12">
  <defs>
    <style>
      .cls-1 {
        fill: #91713f;
      }
    </style>
  </defs>
  <path class="cls-1" d="m1.07,3.02l1.3-1.31c.15-.15.42-.15.57,0l.75.75-1.88,1.88-.75-.75c-.16-.16-.16-.41,0-.57Zm6.27,6.85L2.49,5.01l1.88-1.88,4.85,4.86-1.88,1.88h0Zm2.31-.97l.55,1.96-1.95-.55,1.4-1.41h0ZM.4,2.35c-.53.53-.53,1.39,0,1.91l6.6,6.61c.06.06.13.1.21.12l3.54,1c.1.02.34,0,.46-.12.12-.12.17-.3.12-.46l-1-3.55c-.02-.08-.06-.15-.12-.21L3.62,1.04c-.73-.74-1.65-.25-1.91,0L.4,2.35h0Z"/>
</svg>